<?xml version="1.0" encoding="UTF-8" standalone="no"?>
<svg
   width="320"
   height="240"
   viewBox="0 0 84.666665 63.500002"
   version="1.1"
   id="svg8"
   inkscape:version="1.1.1 (3bf5ae0d25, 2021-09-20)"
   sodipodi:docname="tricorder_interface.svg"
   inkscape:export-filename="C:\Users\jdkoc\OneDrive\Documents\PlatformIO\Projects\Tricorder\SquareLine\assets\bluetooth.png"
   inkscape:export-xdpi="96"
   inkscape:export-ydpi="96"
   xmlns:inkscape="http://www.inkscape.org/namespaces/inkscape"
   xmlns:sodipodi="http://sodipodi.sourceforge.net/DTD/sodipodi-0.dtd"
   xmlns:xlink="http://www.w3.org/1999/xlink"
   xmlns="http://www.w3.org/2000/svg"
   xmlns:svg="http://www.w3.org/2000/svg"
   xmlns:rdf="http://www.w3.org/1999/02/22-rdf-syntax-ns#"
   xmlns:cc="http://creativecommons.org/ns#"
   xmlns:dc="http://purl.org/dc/elements/1.1/">
  <defs
     id="defs2">
    <linearGradient
       inkscape:collect="always"
       id="linearGradient1113">
      <stop
         style="stop-color:#d0d0d0;stop-opacity:1;"
         offset="0"
         id="stop1109" />
      <stop
         style="stop-color:#d0d0d0;stop-opacity:0;"
         offset="1"
         id="stop1111" />
    </linearGradient>
    <linearGradient
       inkscape:collect="always"
       xlink:href="#linearGradient1113"
       id="linearGradient1115"
       x1="15.08125"
       y1="38.430729"
       x2="43.193229"
       y2="38.430729"
       gradientUnits="userSpaceOnUse" />
  </defs>
  <sodipodi:namedview
     id="base"
     pagecolor="#ffffff"
     bordercolor="#666666"
     borderopacity="1.0"
     inkscape:pageopacity="0.0"
     inkscape:pageshadow="2"
     inkscape:zoom="2.0000001"
     inkscape:cx="113.4301"
     inkscape:cy="100.04616"
     inkscape:document-units="mm"
     inkscape:current-layer="g9763"
     inkscape:document-rotation="0"
     showgrid="false"
     units="px"
     inkscape:window-width="1920"
     inkscape:window-height="1017"
     inkscape:window-x="1912"
     inkscape:window-y="-8"
     inkscape:window-maximized="1"
     showguides="true"
     inkscape:pagecheckerboard="0" />
  <metadata
     id="metadata5">
    <rdf:RDF>
      <cc:Work
         rdf:about="">
        <dc:format>image/svg+xml</dc:format>
        <dc:type
           rdf:resource="http://purl.org/dc/dcmitype/StillImage" />
      </cc:Work>
    </rdf:RDF>
  </metadata>
  <g
     inkscape:label="Base"
     inkscape:groupmode="layer"
     id="layer1"
     style="display:inline"
     sodipodi:insensitive="true">
    <rect
       style="fill:#000000;fill-opacity:1;stroke:#000000;stroke-width:0.501621;stroke-miterlimit:4;stroke-dasharray:none;stroke-opacity:1"
       id="rect10"
       width="84.165047"
       height="62.998379"
       x="0.25081056"
       y="0.25081056" />
  </g>
  <g
     inkscape:groupmode="layer"
     id="layer2"
     inkscape:label="Vectors"
     style="display:inline"
     sodipodi:insensitive="true">
    <path
       id="rect836"
       style="fill:#ffee8d;fill-opacity:1;stroke:none;stroke-width:1.97;stroke-miterlimit:4;stroke-dasharray:none;stroke-opacity:1"
       d="M 14.980469,5 A 9.9999997,9.9999997 0 0 0 5,15 9.9999997,9.9999997 0 0 0 5,15.019531 V 30 H 27.322266 V 20.472656 A 4.9999997,4.9999997 0 0 1 27.300781,20 a 4.9999997,4.9999997 0 0 1 5,-5 H 320 V 5 H 15 a 9.9999997,9.9999997 0 0 0 -0.01953,0 z"
       transform="scale(0.26458333)" />
    <path
       id="rect836-8"
       style="fill:#68ccff;fill-opacity:1;stroke:none;stroke-width:0.521229;stroke-miterlimit:4;stroke-dasharray:none;stroke-opacity:1"
       d="m 3.9635836,62.177114 a 2.6458333,2.6458333 0 0 1 -2.6406657,-2.645834 2.6458333,2.6458333 0 0 1 0,-0.0052 V 55.5625 h 5.9060996 v 2.520777 a 1.3229166,1.3229166 0 0 0 -0.00569,0.125057 1.3229166,1.3229166 0 0 0 1.3229166,1.322916 H 84.666667 v 2.645864 H 3.9687513 a 2.6458333,2.6458333 0 0 1 -0.00517,0 z" />
    <rect
       style="fill:#ffee8d;fill-opacity:1;stroke:none;stroke-width:0.5477;stroke-miterlimit:4;stroke-dasharray:none;stroke-opacity:1"
       id="rect871"
       width="5.8208332"
       height="27.252083"
       x="1.3229166"
       y="27.78125" />
    <rect
       style="fill:#646dcc;fill-opacity:1;stroke:none;stroke-width:0.521958;stroke-miterlimit:4;stroke-dasharray:none;stroke-opacity:1"
       id="rect873"
       width="5.8208332"
       height="18.520834"
       x="1.3229166"
       y="8.4666662" />
    <path
       id="rect875"
       style="fill:#68ccff;fill-opacity:1;stroke:none;stroke-width:2.12741;stroke-miterlimit:4;stroke-dasharray:none;stroke-opacity:1"
       d="m 185,20 a 7.9999995,7.9999995 0 0 0 -8,8 v 10 h 16 V 32.060547 A 3.9999999,3.9999999 0 0 1 193,32 3.9999999,3.9999999 0 0 1 197,28 H 320 V 20 H 197 Z"
       transform="scale(0.26458333)" />
    <path
       id="rect875-9"
       style="fill:#68ccff;fill-opacity:1;stroke:none;stroke-width:0.562877;stroke-miterlimit:4;stroke-dasharray:none;stroke-opacity:1"
       d="m 48.947915,58.208333 a 2.1166665,2.1166665 0 0 1 -2.116666,-2.116667 v -2.645833 h 4.233333 v 1.57148 a 1.0583333,1.0583333 0 0 0 0,0.01602 1.0583333,1.0583333 0 0 0 1.058333,1.058333 h 32.543751 v 2.116667 H 52.122915 Z" />
    <rect
       style="fill:#646dcc;fill-opacity:1;stroke:none;stroke-width:1.07325;stroke-miterlimit:4;stroke-dasharray:none;stroke-opacity:1"
       id="rect911"
       width="4.2333331"
       height="42.333332"
       x="46.831249"
       y="10.583333" />
  </g>
  <g
     inkscape:groupmode="layer"
     id="layer3"
     inkscape:label="Buttons"
     style="display:none;mix-blend-mode:normal"
     sodipodi:insensitive="true">
    <path
       id="rect853-1"
       style="fill:#68ccff;stroke-width:0.295661"
       d="m 14.552083,22.489583 v 4.233333 h -3.96875 A 2.1166666,2.1166666 0 0 1 8.4666667,24.60625 2.1166666,2.1166666 0 0 1 10.583333,22.489583 Z"
       inkscape:export-filename="C:\Users\jdkoc\Desktop\halfbutton2.png"
       inkscape:export-xdpi="96"
       inkscape:export-ydpi="96" />
    <path
       id="rect853-1-96"
       style="display:inline;mix-blend-mode:normal;fill:#68ccff;stroke-width:0.295661"
       d="m 14.552083,16.933333 v 4.233333 h -3.96875 A 2.1166666,2.1166666 0 0 1 8.4666667,19.05 2.1166666,2.1166666 0 0 1 10.583333,16.933333 Z"
       inkscape:export-filename="C:\Users\jdkoc\Desktop\halfbutton2.png"
       inkscape:export-xdpi="96"
       inkscape:export-ydpi="96" />
    <rect
       style="fill:#ffee8d;fill-opacity:1;stroke-width:0.479401"
       id="rect860-3"
       width="4.2333331"
       height="4.2333331"
       x="-19.314581"
       y="22.489584"
       transform="scale(-1,1)"
       inkscape:export-filename="C:\Users\jdkoc\Desktop\halfbutton2.png"
       inkscape:export-xdpi="96"
       inkscape:export-ydpi="96" />
    <path
       id="rect853-1-9"
       style="fill:#68ccff;stroke-width:0.295661"
       d="m 14.552084,28.045833 v 4.233333 h -3.96875 A 2.1166666,2.1166666 0 0 1 8.4666667,30.1625 2.1166666,2.1166666 0 0 1 10.583334,28.045833 Z"
       inkscape:export-filename="C:\Users\jdkoc\Desktop\halfbutton3.png"
       inkscape:export-xdpi="96"
       inkscape:export-ydpi="96" />
    <rect
       style="fill:#d0d0d0;fill-opacity:1;stroke-width:0.479401"
       id="rect860-3-1"
       width="4.2333331"
       height="4.2333331"
       x="-19.314581"
       y="28.045835"
       transform="scale(-1,1)"
       inkscape:export-filename="C:\Users\jdkoc\Desktop\halfbutton3.png"
       inkscape:export-xdpi="96"
       inkscape:export-ydpi="96" />
    <rect
       style="fill:#000000;fill-opacity:1;stroke-width:0.479401"
       id="rect860-3-1-3-6"
       width="4.2333331"
       height="4.2333331"
       x="-19.314581"
       y="5.2916689"
       transform="scale(-1,1)" />
    <rect
       style="fill:#68ccff;stroke-width:0.479401"
       id="rect860-9-4-2-25"
       width="4.2333331"
       height="4.2333331"
       x="15.08125"
       y="16.933332"
       inkscape:export-filename="C:\Users\jdkoc\Desktop\halfbutton4.png"
       inkscape:export-xdpi="96"
       inkscape:export-ydpi="96" />
    <path
       id="rect853-9-6-0-8-5"
       style="display:inline;mix-blend-mode:normal;fill:#ffee8d;fill-opacity:1;stroke-width:0.295661"
       d="M 19.84375,43.391667 V 47.625 H 23.8125 A 2.1166666,2.1166666 0 0 0 25.929167,45.508334 2.1166666,2.1166666 0 0 0 23.8125,43.391667 Z"
       inkscape:export-filename="C:\Users\jdkoc\Desktop\fullbutton1.png"
       inkscape:export-xdpi="96"
       inkscape:export-ydpi="96" />
    <path
       id="rect853-1-9-2-1-8-1"
       style="display:inline;mix-blend-mode:normal;fill:#ffee8d;fill-opacity:1;stroke-width:0.295661"
       d="M 14.552083,43.391667 V 47.625 h -3.96875 A 2.1166666,2.1166666 0 0 1 8.4666667,45.508334 2.1166666,2.1166666 0 0 1 10.583333,43.391667 Z"
       inkscape:export-xdpi="96"
       inkscape:export-ydpi="96"
       inkscape:export-filename="C:\Users\jdkoc\Desktop\fullbutton1.png" />
    <rect
       style="display:inline;mix-blend-mode:normal;fill:#ffee8d;fill-opacity:1;stroke-width:0.479401"
       id="rect860-3-1-3-6-6-0-8"
       width="4.2333331"
       height="4.2333331"
       x="-19.314581"
       y="43.391666"
       transform="scale(-1,1)"
       inkscape:export-filename="C:\Users\jdkoc\Desktop\fullbutton1.png"
       inkscape:export-xdpi="96"
       inkscape:export-ydpi="96" />
    <path
       id="rect853-9-6-0-8-5-1"
       style="display:inline;mix-blend-mode:normal;fill:#ffee8d;fill-opacity:1;stroke-width:0.295661"
       d="m 19.84375,48.536133 v 4.233333 h 3.968751 A 2.1166666,2.1166666 0 0 0 25.929168,50.6528 2.1166666,2.1166666 0 0 0 23.812501,48.536133 Z"
       inkscape:export-filename="C:\Users\jdkoc\Desktop\round4.png"
       inkscape:export-xdpi="96"
       inkscape:export-ydpi="96" />
    <path
       id="rect853-1-9-2-1-8-1-0"
       style="display:inline;mix-blend-mode:normal;fill:#ffee8d;fill-opacity:1;stroke-width:0.295661"
       d="m 14.552083,48.536133 v 4.233333 h -3.96875 A 2.1166666,2.1166666 0 0 1 8.4666667,50.6528 2.1166666,2.1166666 0 0 1 10.583333,48.536133 Z"
       inkscape:export-xdpi="96"
       inkscape:export-ydpi="96"
       inkscape:export-filename="C:\Users\jdkoc\Desktop\round2.png" />
    <rect
       style="display:inline;mix-blend-mode:normal;fill:#ffee8d;fill-opacity:1;stroke-width:0.479401"
       id="rect860-3-1-3-6-6-0-8-7"
       width="4.2333331"
       height="4.2333331"
       x="-19.314581"
       y="48.536133"
       transform="scale(-1,1)"
       inkscape:export-filename="C:\Users\jdkoc\Desktop\square1.png"
       inkscape:export-xdpi="96"
       inkscape:export-ydpi="96" />
    <path
       id="rect853-9-6-0-8-5-6"
       style="display:inline;mix-blend-mode:normal;fill:#ffee8d;fill-opacity:1;stroke-width:0.295661"
       d="m 19.843749,53.827799 v 4.233333 H 23.8125 A 2.1166666,2.1166666 0 0 0 25.929167,55.944466 2.1166666,2.1166666 0 0 0 23.8125,53.827799 Z"
       inkscape:export-filename="C:\Users\jdkoc\Desktop\round4.png"
       inkscape:export-xdpi="96"
       inkscape:export-ydpi="96" />
    <path
       id="rect853-1-9-2-1-8-1-6"
       style="display:inline;mix-blend-mode:normal;fill:#ffee8d;fill-opacity:1;stroke-width:0.295661"
       d="m 14.552083,53.827799 v 4.233333 h -3.96875 A 2.1166666,2.1166666 0 0 1 8.4666667,55.944466 2.1166666,2.1166666 0 0 1 10.583333,53.827799 Z"
       inkscape:export-xdpi="96"
       inkscape:export-ydpi="96"
       inkscape:export-filename="C:\Users\jdkoc\Desktop\round2.png" />
    <rect
       style="display:inline;mix-blend-mode:normal;fill:#ffee8d;fill-opacity:1;stroke-width:0.479401"
       id="rect860-3-1-3-6-6-0-8-0"
       width="4.2333331"
       height="4.2333331"
       x="-19.314581"
       y="53.827805"
       transform="scale(-1,1)"
       inkscape:export-filename="C:\Users\jdkoc\Desktop\square1.png"
       inkscape:export-xdpi="96"
       inkscape:export-ydpi="96" />
    <path
       id="rect853-9-6-0-8-5-9"
       style="display:inline;mix-blend-mode:normal;fill:#ffee8d;fill-opacity:1;stroke-width:0.295661"
       d="M 39.422916,43.391667 V 47.625 h 3.968751 a 2.1166666,2.1166666 0 0 0 2.116667,-2.116666 2.1166666,2.1166666 0 0 0 -2.116667,-2.116667 z"
       inkscape:export-filename="C:\Users\jdkoc\Desktop\round4.png"
       inkscape:export-xdpi="96"
       inkscape:export-ydpi="96" />
    <path
       id="rect853-1-9-2-1-8-1-3"
       style="display:inline;mix-blend-mode:normal;fill:#ffee8d;fill-opacity:1;stroke-width:0.295661"
       d="M 34.13125,43.391667 V 47.625 H 30.1625 A 2.1166666,2.1166666 0 0 1 28.045833,45.508334 2.1166666,2.1166666 0 0 1 30.1625,43.391667 Z"
       inkscape:export-xdpi="96"
       inkscape:export-ydpi="96"
       inkscape:export-filename="C:\Users\jdkoc\Desktop\round2.png" />
    <rect
       style="display:inline;mix-blend-mode:normal;fill:#ffee8d;fill-opacity:1;stroke-width:0.479401"
       id="rect860-3-1-3-6-6-0-8-5"
       width="4.2333331"
       height="4.2333331"
       x="-38.893749"
       y="43.39167"
       transform="scale(-1,1)"
       inkscape:export-filename="C:\Users\jdkoc\Desktop\square1.png"
       inkscape:export-xdpi="96"
       inkscape:export-ydpi="96" />
    <path
       id="rect853-9-6-0-8-5-1-1"
       style="display:inline;mix-blend-mode:normal;fill:#ffee8d;fill-opacity:1;stroke-width:0.295661"
       d="m 39.422916,48.536133 v 4.233333 h 3.968751 A 2.1166666,2.1166666 0 0 0 45.508335,50.6528 2.1166666,2.1166666 0 0 0 43.391667,48.536133 Z"
       inkscape:export-filename="C:\Users\jdkoc\Desktop\round4.png"
       inkscape:export-xdpi="96"
       inkscape:export-ydpi="96" />
    <path
       id="rect853-1-9-2-1-8-1-0-7"
       style="display:inline;mix-blend-mode:normal;fill:#ffee8d;fill-opacity:1;stroke-width:0.295661"
       d="m 34.13125,48.536133 v 4.233333 H 30.1625 A 2.1166666,2.1166666 0 0 1 28.045833,50.6528 2.1166666,2.1166666 0 0 1 30.1625,48.536133 Z"
       inkscape:export-xdpi="96"
       inkscape:export-ydpi="96"
       inkscape:export-filename="C:\Users\jdkoc\Desktop\round2.png" />
    <rect
       style="display:inline;mix-blend-mode:normal;fill:#ffee8d;fill-opacity:1;stroke-width:0.479401"
       id="rect860-3-1-3-6-6-0-8-7-5"
       width="4.2333331"
       height="4.2333331"
       x="-38.893749"
       y="48.536137"
       transform="scale(-1,1)"
       inkscape:export-filename="C:\Users\jdkoc\Desktop\square1.png"
       inkscape:export-xdpi="96"
       inkscape:export-ydpi="96" />
    <path
       id="rect853-9-6-0-8-5-6-6"
       style="display:inline;mix-blend-mode:normal;fill:#ffee8d;fill-opacity:1;stroke-width:0.295661"
       d="m 39.422916,53.827799 v 4.233333 h 3.968751 a 2.1166666,2.1166666 0 0 0 2.116667,-2.116666 2.1166666,2.1166666 0 0 0 -2.116667,-2.116667 z"
       inkscape:export-filename="C:\Users\jdkoc\Desktop\round4.png"
       inkscape:export-xdpi="96"
       inkscape:export-ydpi="96" />
    <path
       id="rect853-1-9-2-1-8-1-6-0"
       style="display:inline;mix-blend-mode:normal;fill:#ffee8d;fill-opacity:1;stroke-width:0.295661"
       d="m 34.13125,53.827799 v 4.233333 H 30.1625 A 2.1166666,2.1166666 0 0 1 28.045833,55.944466 2.1166666,2.1166666 0 0 1 30.1625,53.827799 Z"
       inkscape:export-xdpi="96"
       inkscape:export-ydpi="96"
       inkscape:export-filename="C:\Users\jdkoc\Desktop\round2.png" />
    <rect
       style="display:inline;mix-blend-mode:normal;fill:#ffee8d;fill-opacity:1;stroke-width:0.479401"
       id="rect860-3-1-3-6-6-0-8-0-6"
       width="4.2333331"
       height="4.2333331"
       x="-38.893749"
       y="53.827808"
       transform="scale(-1,1)"
       inkscape:export-filename="C:\Users\jdkoc\Desktop\square1.png"
       inkscape:export-xdpi="96"
       inkscape:export-ydpi="96" />
  </g>
  <g
     inkscape:groupmode="layer"
     id="layer4"
     inkscape:label="Text"
     style="display:none"
     sodipodi:insensitive="true">
    <text
       xml:space="preserve"
       style="font-style:normal;font-variant:normal;font-weight:normal;font-stretch:normal;font-size:4.7625px;line-height:1.25;font-family:Antonio;-inkscape-font-specification:'Antonio, @wght=400';font-variant-ligatures:normal;font-variant-caps:normal;font-variant-numeric:normal;font-variant-east-asian:normal;font-variation-settings:'wght' 400;letter-spacing:0px;word-spacing:0px;fill:#68ccff;fill-opacity:1;stroke:none;stroke-width:0.227873"
       x="23.012856"
       y="18.499973"
       id="text890-6"
       transform="scale(0.86125471,1.1610967)"><tspan
         sodipodi:role="line"
         id="tspan1788"
         x="23.012856"
         y="18.499973">BLUETOOTH</tspan></text>
    <text
       xml:space="preserve"
       style="font-style:normal;font-variant:normal;font-weight:normal;font-stretch:normal;font-size:4.7625px;line-height:1.25;font-family:Antonio;-inkscape-font-specification:'Antonio, @wght=400';font-variant-ligatures:normal;font-variant-caps:normal;font-variant-numeric:normal;font-variant-east-asian:normal;font-variation-settings:'wght' 400;letter-spacing:0px;word-spacing:0px;display:inline;fill:#ffee8d;fill-opacity:1;stroke:none;stroke-width:0.227873"
       x="9.4957552"
       y="36.046242"
       id="text890-2-8"
       transform="scale(0.86125471,1.1610967)"><tspan
         sodipodi:role="line"
         id="tspan1911"
         x="9.4957552"
         y="36.046242">CUSTOM FUNCTIONS</tspan></text>
    <text
       xml:space="preserve"
       style="font-style:normal;font-variant:normal;font-weight:normal;font-stretch:normal;font-size:4.7625px;line-height:1.25;font-family:Antonio;-inkscape-font-specification:'Antonio, @wght=400';font-variant-ligatures:normal;font-variant-caps:normal;font-variant-numeric:normal;font-variant-east-asian:normal;font-variation-settings:'wght' 400;letter-spacing:0px;word-spacing:0px;display:inline;fill:#ffee8d;fill-opacity:1;stroke:none;stroke-width:0.227873"
       x="23.012856"
       y="23.285318"
       id="text890-2-8-9"
       transform="scale(0.86125471,1.1610967)"><tspan
         sodipodi:role="line"
         id="tspan1830"
         x="23.012856"
         y="23.285318">LCARS ACCESS</tspan></text>
    <text
       xml:space="preserve"
       style="font-style:normal;font-variant:normal;font-weight:normal;font-stretch:normal;font-size:4.7625px;line-height:1.25;font-family:Antonio;-inkscape-font-specification:'Antonio, @wght=400';font-variant-ligatures:normal;font-variant-caps:normal;font-variant-numeric:normal;font-variant-east-asian:normal;font-variation-settings:'wght' 400;letter-spacing:0px;word-spacing:0px;display:inline;fill:#68ccff;fill-opacity:1;stroke:none;stroke-width:0.227873"
       x="23.012856"
       y="28.070665"
       id="text890-6-2"
       transform="scale(0.86125471,1.1610967)"><tspan
         sodipodi:role="line"
         id="tspan1852"
         x="23.012856"
         y="28.070665">CARTOGRAPHY</tspan></text>
    <text
       xml:space="preserve"
       style="font-style:normal;font-variant:normal;font-weight:normal;font-stretch:normal;font-size:4.7625px;line-height:1.25;font-family:Antonio;-inkscape-font-specification:Antonio;font-variant-ligatures:normal;font-variant-caps:normal;font-variant-numeric:normal;font-variant-east-asian:normal;letter-spacing:0px;word-spacing:0px;display:inline;fill:#ffee8d;fill-opacity:1;stroke:none;stroke-width:0.227873"
       x="59.616978"
       y="34.451126"
       id="text890-2-8-8"
       transform="scale(0.86125471,1.1610967)"><tspan
         sodipodi:role="line"
         id="tspan888-1-5-4"
         x="59.616978"
         y="34.451126"
         style="font-style:normal;font-variant:normal;font-weight:normal;font-stretch:normal;font-size:4.7625px;font-family:Antonio;-inkscape-font-specification:Antonio;font-variant-ligatures:normal;font-variant-caps:normal;font-variant-numeric:normal;font-variant-east-asian:normal;fill:#ffee8d;fill-opacity:1;stroke-width:0.227873">CONSOLE</tspan></text>
  </g>
  <g
     inkscape:groupmode="layer"
     id="layer7"
     inkscape:label="Other Widgets"
     style="display:none"
     sodipodi:insensitive="true">
    <rect
       style="fill:#ffffff;fill-opacity:1;stroke-width:0.667884;stroke-miterlimit:4;stroke-dasharray:none"
       id="rect1700"
       width="32.543751"
       height="26.458334"
       x="51.59375"
       y="7.9375"
       ry="1.332226" />
    <rect
       style="fill:#ffffff;fill-opacity:1;stroke-width:0.516849;stroke-miterlimit:4;stroke-dasharray:none"
       id="rect1720"
       width="32.543751"
       height="14.552083"
       x="51.59375"
       y="41.010418"
       ry="1.4842874" />
    <text
       xml:space="preserve"
       style="font-style:normal;font-variant:normal;font-weight:normal;font-stretch:normal;font-size:4.7625px;line-height:1.25;font-family:Antonio;-inkscape-font-specification:'Antonio, @wght=400';font-variant-ligatures:normal;font-variant-caps:normal;font-variant-numeric:normal;font-variant-east-asian:normal;font-variation-settings:'wght' 400;letter-spacing:0px;word-spacing:0px;display:inline;fill:#68ccff;fill-opacity:1;stroke:none;stroke-width:0.227873"
       x="9.5399389"
       y="8.4665556"
       id="text890"
       transform="scale(0.86125471,1.1610967)"><tspan
         sodipodi:role="line"
         id="tspan1782"
         x="9.5399389"
         y="8.4665556">INIT BATT</tspan></text>
  </g>
  <g
     inkscape:groupmode="layer"
     id="layer5"
     inkscape:label="Block Sidebar"
     style="display:inline"
     sodipodi:insensitive="true">
    <rect
       style="fill:#000000;fill-opacity:1;stroke:#000000;stroke-width:0.299205"
       id="rect9165"
       width="42.10479"
       height="54.469543"
       x="42.562275"
       y="4.7703629" />
  </g>
  <g
     inkscape:groupmode="layer"
     id="layer6"
     inkscape:label="LCARS"
     sodipodi:insensitive="true"
     style="display:none">
    <text
       xml:space="preserve"
       style="font-style:normal;font-variant:normal;font-weight:normal;font-stretch:normal;font-size:4.7625px;line-height:1.25;font-family:Antonio;-inkscape-font-specification:'Antonio, @wght=400';font-variant-ligatures:normal;font-variant-caps:normal;font-variant-numeric:normal;font-variant-east-asian:normal;font-variation-settings:'wght' 400;letter-spacing:0px;word-spacing:0px;display:inline;fill:#68ccff;fill-opacity:1;stroke:none;stroke-width:0.227873"
       x="9.5399933"
       y="8.4665804"
       id="text890-9"
       transform="scale(0.86125471,1.1610967)"><tspan
         sodipodi:role="line"
         id="tspan1782-4"
         x="9.5399933"
         y="8.4665804">LCARS ACCESS TERMINAL                      BACK</tspan></text>
  </g>
  <g
     inkscape:groupmode="layer"
     id="layer8"
     inkscape:label="LCARS Buttons"
     style="display:none"
     sodipodi:insensitive="true">
    <path
       id="rect853-9-6-0-8-5-9-4"
       style="display:inline;mix-blend-mode:normal;fill:#68ccff;fill-opacity:1;stroke-width:0.295661"
       d="m 77.522914,5.2916622 v 4.233334 h 3.968751 a 2.1166666,2.1166666 0 0 0 2.116667,-2.116667 2.1166666,2.1166666 0 0 0 -2.116667,-2.116667 z"
       inkscape:export-filename="C:\Users\jdkoc\Desktop\round4.png"
       inkscape:export-xdpi="96"
       inkscape:export-ydpi="96" />
    <rect
       style="display:inline;mix-blend-mode:normal;fill:#68ccff;fill-opacity:1;stroke-width:0.479401"
       id="rect860-3-1-3-6-6-0-8-5-9"
       width="4.2333331"
       height="4.2333331"
       x="-76.993752"
       y="5.291666"
       transform="scale(-1,1)"
       inkscape:export-filename="C:\Users\jdkoc\Desktop\square1.png"
       inkscape:export-xdpi="96"
       inkscape:export-ydpi="96" />
  </g>
  <g
     inkscape:groupmode="layer"
     id="g9763"
     inkscape:label="Bluetooth"
     style="display:inline">
    <text
       xml:space="preserve"
       style="font-style:normal;font-variant:normal;font-weight:normal;font-stretch:normal;font-size:4.7625px;line-height:1.25;font-family:Antonio;-inkscape-font-specification:'Antonio, @wght=400';font-variant-ligatures:normal;font-variant-caps:normal;font-variant-numeric:normal;font-variant-east-asian:normal;font-variation-settings:'wght' 400;letter-spacing:0px;word-spacing:0px;display:inline;fill:#68ccff;fill-opacity:1;stroke:none;stroke-width:0.227873"
       x="9.5399933"
       y="8.4665804"
       id="text9761"
       transform="scale(0.86125471,1.1610967)"><tspan
         sodipodi:role="line"
         id="tspan9759"
         x="9.5399933"
         y="8.4665804">BLUETOOTH SETUP                               BACK</tspan></text>
    <text
       xml:space="preserve"
       style="font-size:4.23333px;line-height:1.25;font-family:'Times New Roman';-inkscape-font-specification:'Times New Roman, ';stroke-width:0.264583"
       x="8.5989571"
       y="15.742707"
       id="text25015"><tspan
         sodipodi:role="line"
         id="tspan25013"
         style="stroke-width:0.264583"
         x="8.5989571"
         y="15.742707" /></text>
    <text
       xml:space="preserve"
       style="font-size:4.23333px;line-height:1.25;font-family:'Times New Roman';-inkscape-font-specification:'Times New Roman, ';stroke-width:0.264583"
       x="16.139582"
       y="26.590622"
       id="text25847"><tspan
         sodipodi:role="line"
         id="tspan25845"
         style="stroke-width:0.264583"
         x="16.139582"
         y="26.590622" /></text>
    <text
       xml:space="preserve"
       style="font-style:normal;font-variant:normal;font-weight:normal;font-stretch:normal;font-size:4.7625px;line-height:1.25;font-family:Antonio;-inkscape-font-specification:Antonio;fill:#ffee8d;fill-opacity:1;stroke-width:0.264583"
       x="8.2164125"
       y="16.050182"
       id="text27507"><tspan
         sodipodi:role="line"
         id="tspan27505"
         style="font-style:normal;font-variant:normal;font-weight:normal;font-stretch:normal;font-size:4.7625px;font-family:Antonio;-inkscape-font-specification:Antonio;fill:#ffee8d;fill-opacity:1;stroke-width:0.264583"
         x="8.2164125"
         y="16.050182">STATUS</tspan></text>
    <text
       xml:space="preserve"
       style="font-style:normal;font-variant:normal;font-weight:normal;font-stretch:normal;font-size:4.7625px;line-height:1.25;font-family:Antonio;-inkscape-font-specification:Antonio;display:inline;fill:#ffee8d;fill-opacity:1;stroke-width:0.264583"
       x="49.982479"
       y="16.050182"
       id="text27507-4"><tspan
         sodipodi:role="line"
         id="tspan27505-0"
         style="font-style:normal;font-variant:normal;font-weight:normal;font-stretch:normal;font-size:4.7625px;font-family:Antonio;-inkscape-font-specification:Antonio;fill:#ffee8d;fill-opacity:1;stroke-width:0.264583"
         x="49.982479"
         y="16.050182">CONNECT</tspan></text>
    <path
       id="path47780"
       style="display:inline;fill:#ffee8d;fill-opacity:1;stroke:none;stroke-width:4.28546"
       d="m 43.994141,200 a 7.9999996,7.9999996 0 0 0 -7.902344,6.79492 7.9999996,7.9999996 0 0 0 6.681641,9.11133 l 0.08398,0.0117 A 7.9999996,7.9999996 0 0 0 44,215.99805 V 216 h 262 v -0.002 a 7.9999996,7.9999996 0 0 0 7.91406,-6.83399 7.9999996,7.9999996 0 0 0 -6.72851,-9.07617 A 7.9999996,7.9999996 0 0 0 306,200 H 305.994 44 a 7.9999996,7.9999996 0 0 0 -0.0059,0 z"
       transform="scale(0.26458333)" />
    <path
       id="path47780-7"
       style="display:inline;fill:#ffee8d;fill-opacity:1;stroke:none;stroke-width:1.13386"
       d="M 11.640017,17.991667 A 2.1166665,2.1166665 0 0 0 9.5491885,19.78949 2.1166665,2.1166665 0 0 0 11.31704,22.200196 l 0.02222,0.0031 a 2.1166665,2.1166665 0 0 0 0.302309,0.02119 v 5.15e-4 H 80.9624 v -5.3e-4 a 2.1166665,2.1166665 0 0 0 2.093928,-1.80816 2.1166665,2.1166665 0 0 0 -1.780251,-2.401403 2.1166665,2.1166665 0 0 0 -0.313677,-0.02324 H 80.9608 11.641556 a 2.1166665,2.1166665 0 0 0 -0.0016,0 z" />
    <text
       xml:space="preserve"
       style="font-size:4.23333px;line-height:1.25;font-family:'Times New Roman';-inkscape-font-specification:'Times New Roman, ';stroke-width:0.264583"
       x="47.785999"
       y="15.921377"
       id="text52891"><tspan
         sodipodi:role="line"
         id="tspan52889"
         style="stroke-width:0.264583"
         x="47.785999"
         y="15.921377" /></text>
  </g>
  <g
     inkscape:groupmode="layer"
     id="g9757"
     inkscape:label="Bluetooth Buttons"
     style="display:none">
    <path
       id="path9753"
       style="display:inline;mix-blend-mode:normal;fill:#68ccff;fill-opacity:1;stroke-width:0.295661"
       d="m 76.993746,5.2916622 v 4.233334 h 3.968751 a 2.1166666,2.1166666 0 0 0 2.116667,-2.116667 2.1166666,2.1166666 0 0 0 -2.116667,-2.116667 z"
       inkscape:export-filename="C:\Users\jdkoc\Desktop\round4.png"
       inkscape:export-xdpi="96"
       inkscape:export-ydpi="96" />
    <rect
       style="display:inline;mix-blend-mode:normal;fill:#68ccff;fill-opacity:1;stroke-width:0.479401"
       id="rect9755"
       width="4.2333331"
       height="4.2333331"
       x="-76.464584"
       y="5.291666"
       transform="scale(-1,1)"
       inkscape:export-filename="C:\Users\jdkoc\Desktop\square1.png"
       inkscape:export-xdpi="96"
       inkscape:export-ydpi="96" />
    <path
       id="rect853-9-6-0-8-5-65"
       style="display:inline;mix-blend-mode:normal;fill:#ffee8d;fill-opacity:1;stroke-width:0.295661"
       d="m 76.993751,11.90625 v 4.233333 h 3.96875 a 2.1166666,2.1166666 0 0 0 2.116667,-2.116666 2.1166666,2.1166666 0 0 0 -2.116667,-2.116667 z"
       inkscape:export-filename="C:\Users\jdkoc\Desktop\fullbutton1.png"
       inkscape:export-xdpi="96"
       inkscape:export-ydpi="96" />
    <path
       id="rect853-1-9-2-1-8-1-1"
       style="display:inline;mix-blend-mode:normal;fill:#ffee8d;fill-opacity:1;stroke-width:0.295661"
       d="m 71.702084,11.90625 v 4.233333 h -3.96875 a 2.1166666,2.1166666 0 0 1 -2.116667,-2.116666 2.1166666,2.1166666 0 0 1 2.116667,-2.116667 z"
       inkscape:export-xdpi="96"
       inkscape:export-ydpi="96"
       inkscape:export-filename="C:\Users\jdkoc\Desktop\fullbutton1.png" />
    <rect
       style="display:inline;mix-blend-mode:normal;fill:#ffee8d;fill-opacity:1;stroke-width:0.479401"
       id="rect860-3-1-3-6-6-0-8-76"
       width="4.2333331"
       height="4.2333331"
       x="-76.464584"
       y="11.90625"
       transform="scale(-1,1)"
       inkscape:export-filename="C:\Users\jdkoc\Desktop\fullbutton1.png"
       inkscape:export-xdpi="96"
       inkscape:export-ydpi="96" />
  </g>
</svg>
